<svg width="46" height="46" viewBox="0 0 46 46" fill="none" xmlns="http://www.w3.org/2000/svg">
<g clip-path="url(#clip0)">
<path d="M22.6722 22.1583C25.7164 22.1583 28.3524 21.0665 30.5062 18.9124C32.66 16.7586 33.7518 14.1233 33.7518 11.0788C33.7518 8.03537 32.66 5.39973 30.5058 3.24524C28.3517 1.09181 25.716 0 22.6722 0C19.6277 0 16.9924 1.09181 14.8386 3.24559C12.6848 5.39938 11.5927 8.03502 11.5927 11.0788C11.5927 14.1233 12.6848 16.7589 14.839 18.9127C16.9931 21.0662 19.6288 22.1583 22.6722 22.1583Z" fill="#38AE53"/>
<path d="M42.0585 35.3716C41.9963 34.4753 41.8707 33.4975 41.6857 32.465C41.499 31.4248 41.2586 30.4415 40.9709 29.5427C40.6736 28.6137 40.2693 27.6963 39.7695 26.8172C39.2508 25.9047 38.6416 25.1102 37.9579 24.4563C37.243 23.7723 36.3678 23.2224 35.3556 22.8213C34.347 22.4222 33.2292 22.2201 32.0335 22.2201C31.5639 22.2201 31.1098 22.4127 30.2328 22.9837C29.693 23.3357 29.0616 23.7429 28.3569 24.1931C27.7543 24.5771 26.938 24.9368 25.9297 25.2625C24.946 25.5808 23.9472 25.7422 22.9614 25.7422C21.9756 25.7422 20.9771 25.5808 19.9923 25.2625C18.9851 24.9371 18.1688 24.5774 17.5669 24.1935C16.8689 23.7474 16.2372 23.3403 15.6893 22.9834C14.8133 22.4124 14.3589 22.2197 13.8893 22.2197C12.6932 22.2197 11.5758 22.4222 10.5675 22.8216C9.55608 23.222 8.68045 23.772 7.96486 24.4567C7.28156 25.1109 6.67195 25.9051 6.15395 26.8172C5.65454 27.6963 5.25024 28.6133 4.95264 29.543C4.66521 30.4418 4.4248 31.4248 4.2381 32.465C4.05315 33.4961 3.92751 34.4742 3.86539 35.3727C3.80432 36.2528 3.77344 37.1664 3.77344 38.089C3.77344 40.4902 4.53676 42.4341 6.04199 43.8678C7.52863 45.2825 9.49571 46.0001 11.8878 46.0001H34.0371C36.4292 46.0001 38.3956 45.2828 39.8826 43.8678C41.3881 42.4352 42.1515 40.4909 42.1515 38.0887C42.1511 37.1618 42.1199 36.2476 42.0585 35.3716Z" fill="#38AE53"/>
<circle cx="33.5" cy="37.5" r="9" fill="#38AE53" stroke="white"/>
<path d="M33.5007 32L33.5007 43.0001" stroke="white"/>
<path d="M28 37.5613L39 37.6126" stroke="white"/>
</g>
<defs>
<clipPath id="clip0">
<rect width="46" height="46" fill="white"/>
</clipPath>
</defs>
</svg>
