<svg width="109" height="109" viewBox="0 0 109 109" fill="none" xmlns="http://www.w3.org/2000/svg">
<path d="M71.5312 6.8125H64.1329C62.7295 2.84762 58.9417 0 54.5 0C50.0582 0 46.2705 2.84762 44.8603 6.8125H37.4688C35.5885 6.8125 34.0625 8.3385 34.0625 10.2188V23.8438C34.0625 25.724 35.5885 27.25 37.4688 27.25H71.5312C73.4115 27.25 74.9375 25.724 74.9375 23.8438V10.2188C74.9375 8.3385 73.4115 6.8125 71.5312 6.8125Z" fill="#FF0000"/>
<path d="M88.5625 13.625H81.75V23.8438C81.75 29.4777 77.1652 34.0625 71.5312 34.0625H37.4688C31.8348 34.0625 27.25 29.4777 27.25 23.8438V13.625H20.4375C16.6838 13.625 13.625 16.6838 13.625 20.4375V102.188C13.625 106.009 16.6157 109 20.4375 109H88.5625C92.3843 109 95.375 106.009 95.375 102.188V20.4375C95.375 16.6157 92.3843 13.625 88.5625 13.625ZM53.5054 73.9429L39.8804 87.5679C39.2128 88.2287 38.3407 88.5625 37.4688 88.5625C36.5968 88.5625 35.7247 88.2287 35.0571 87.5679L28.2446 80.7554C26.9162 79.4269 26.9162 77.2674 28.2446 75.9389C29.5731 74.6105 31.7326 74.6105 33.0611 75.9389L37.4688 80.3398L48.6821 69.1264C50.0106 67.798 52.1701 67.798 53.4986 69.1264C54.827 70.4549 54.8338 72.6076 53.5054 73.9429ZM53.5054 46.6929L39.8804 60.3179C39.2128 60.9787 38.3407 61.3125 37.4688 61.3125C36.5968 61.3125 35.7247 60.9787 35.0571 60.3179L28.2446 53.5054C26.9162 52.1769 26.9162 50.0174 28.2446 48.6889C29.5731 47.3605 31.7326 47.3605 33.0611 48.6889L37.4688 53.0898L48.6821 41.8764C50.0106 40.548 52.1701 40.548 53.4986 41.8764C54.827 43.2049 54.8338 45.3576 53.5054 46.6929ZM78.3438 81.75H64.7188C62.8385 81.75 61.3125 80.224 61.3125 78.3438C61.3125 76.4635 62.8385 74.9375 64.7188 74.9375H78.3438C80.224 74.9375 81.75 76.4635 81.75 78.3438C81.75 80.224 80.224 81.75 78.3438 81.75ZM78.3438 54.5H64.7188C62.8385 54.5 61.3125 52.974 61.3125 51.0938C61.3125 49.2135 62.8385 47.6875 64.7188 47.6875H78.3438C80.224 47.6875 81.75 49.2135 81.75 51.0938C81.75 52.974 80.224 54.5 78.3438 54.5Z" fill="#FF0000"/>
<circle cx="82" cy="85" r="22.5" fill="#FF0000" stroke="white" stroke-width="3"/>
<path d="M72.2153 75.1357L91.7873 94.864" stroke="white" stroke-width="3"/>
<path d="M72.2449 94.897L92.0643 75.4171" stroke="white" stroke-width="3"/>
</svg>
