<svg width="512" height="512" viewBox="0 0 512 512" fill="none" xmlns="http://www.w3.org/2000/svg">
<g clip-path="url(#clip0)">
<path d="M346.645 512C342.677 512 338.645 510.891 335.083 508.565L244.416 449.899C234.539 443.499 231.701 430.293 238.101 420.395C244.501 410.517 257.707 407.68 267.605 414.08L358.272 472.747C368.149 479.147 370.987 492.352 364.587 502.251C360.491 508.565 353.643 512 346.645 512Z" fill="#FF0000"/>
<path d="M165.355 512C158.358 512 151.51 508.565 147.435 502.251C141.035 492.352 143.872 479.147 153.75 472.747L244.416 414.08C254.315 407.659 267.52 410.517 273.92 420.395C280.32 430.293 277.483 443.499 267.606 449.899L176.939 508.565C173.334 510.891 169.323 512 165.355 512Z" fill="#FF0000"/>
<path d="M234.667 405.333V490.667C234.667 502.443 244.224 512 256 512C267.776 512 277.333 502.443 277.333 490.667V405.333H234.667Z" fill="#FF0000"/>
<path d="M464 138.667H48.0002C44.3522 138.667 40.8322 138.133 37.3335 137.579V346.667C37.3335 367.253 54.0802 384 74.6668 384H437.334C457.92 384 474.667 367.253 474.667 346.667V137.579C471.168 138.133 467.648 138.667 464 138.667ZM384.469 205.547L303.019 304.597C296.128 312.981 284.032 314.859 274.923 308.949L228.139 278.592L158.87 345.963C154.731 349.995 149.355 352 144 352C138.432 352 132.885 349.845 128.704 345.536C120.491 337.088 120.683 323.584 129.131 315.371L210.582 236.139C217.686 229.184 228.672 228.096 237.078 233.536L282.176 262.784L351.531 178.453C359.019 169.365 372.48 168.064 381.568 175.531C390.656 183.019 391.957 196.437 384.469 205.547V205.547Z" fill="#FF0000"/>
<circle cx="379.5" cy="379.5" r="125" fill="#FF0000" stroke="white" stroke-width="15"/>
<path d="M325.479 325.038L433.533 433.955" stroke="white" stroke-width="15"/>
<path d="M325.642 434.138L435.061 326.593" stroke="white" stroke-width="15"/>
<path d="M464 117.333H48C21.5253 117.333 0 95.808 0 69.3334C0 42.8587 21.5253 21.3334 48 21.3334H464C490.475 21.3334 512 42.8587 512 69.3334C512 95.808 490.475 117.333 464 117.333Z" fill="#FF0000"/>
</g>
<defs>
<clipPath id="clip0">
<rect width="512" height="512" fill="white"/>
</clipPath>
</defs>
</svg>
