<svg width="48" height="48" viewBox="0 0 48 48" fill="none" xmlns="http://www.w3.org/2000/svg">
<path d="M39.7009 41.3792H8.29852C7.95022 41.3825 7.60772 41.29 7.30845 41.1117C7.00919 40.9335 6.76468 40.6764 6.60166 40.3686C6.43449 40.0574 6.35467 39.7068 6.37066 39.3539C6.38665 39.0011 6.49785 38.6591 6.69247 38.3643C8.03781 36.3352 9.16823 34.1715 10.0654 31.9083C11.2731 28.9493 11.9113 25.7889 11.9465 22.5931V19.0054C11.8984 15.8635 13.064 12.8242 15.2006 10.5202C17.3371 8.21616 20.28 6.82498 23.4166 6.6363C25.0468 6.55773 26.676 6.81089 28.2054 7.38045C29.7349 7.95001 31.1329 8.82411 32.3146 9.94982C33.4964 11.0755 34.4373 12.4294 35.0804 13.9294C35.7236 15.4295 36.0555 17.0444 36.0562 18.6765V22.5931C36.0562 29.0251 38.9102 34.7228 41.3102 38.3637C41.5051 38.6583 41.6165 39.0003 41.6324 39.3533C41.6484 39.7062 41.5685 40.0569 41.401 40.368C41.2378 40.6764 40.9929 40.9339 40.693 41.1123C40.3931 41.2907 40.0498 41.383 39.7009 41.3792V41.3792ZM24.0075 7.91997C23.8306 7.91997 23.6538 7.9243 23.4769 7.93295C20.6736 8.10606 18.045 9.35375 16.1385 11.4162C14.232 13.4787 13.1945 16.1971 13.2419 19.0054V22.595C13.2073 25.9532 12.5392 29.2747 11.2726 32.3851C10.3424 34.7314 9.17068 36.9746 7.77636 39.0785C7.70907 39.1771 7.67032 39.2924 7.66437 39.4117C7.65842 39.5309 7.6855 39.6495 7.74263 39.7544C7.79571 39.8552 7.87569 39.9394 7.9737 39.9976C8.07171 40.0557 8.18392 40.0856 8.29788 40.0839H39.7009C39.8148 40.0856 39.9269 40.0558 40.0249 39.9977C40.1229 39.9397 40.2029 39.8557 40.2562 39.755C40.3133 39.6502 40.3404 39.5316 40.3344 39.4123C40.3285 39.2931 40.2897 39.1778 40.2224 39.0791C37.7297 35.2865 34.7582 29.3494 34.7582 22.5957V18.6765C34.757 15.8251 33.6241 13.0907 31.6084 11.0739C29.5927 9.05707 26.8589 7.92272 24.0075 7.91997V7.91997Z" fill="#2DBEFC"/>
<path d="M38.4344 35.2956H9.56955C9.39751 35.2956 9.23253 35.2273 9.11088 35.1056C8.98924 34.984 8.9209 34.819 8.9209 34.6469C8.9209 34.4749 8.98924 34.3099 9.11088 34.1883C9.23253 34.0666 9.39751 33.9983 9.56955 33.9983H38.4344C38.6064 33.9983 38.7714 34.0666 38.8931 34.1883C39.0147 34.3099 39.0831 34.4749 39.0831 34.6469C39.0831 34.819 39.0147 34.984 38.8931 35.1056C38.7714 35.2273 38.6064 35.2956 38.4344 35.2956Z" fill="#2DBEFC"/>
<path d="M23.9999 46.7027C22.4166 46.701 20.8985 46.0713 19.7789 44.9516C18.6593 43.832 18.0295 42.314 18.0278 40.7306C18.0278 40.5586 18.0962 40.3936 18.2178 40.272C18.3395 40.1503 18.5044 40.082 18.6765 40.082C18.8485 40.082 19.0135 40.1503 19.1351 40.272C19.2568 40.3936 19.3251 40.5586 19.3251 40.7306C19.3251 41.9705 19.8177 43.1595 20.6944 44.0362C21.571 44.9129 22.7601 45.4054 23.9999 45.4054C25.2398 45.4054 26.4288 44.9129 27.3055 44.0362C28.1822 43.1595 28.6748 41.9705 28.6748 40.7306C28.6748 40.5586 28.7431 40.3936 28.8647 40.272C28.9864 40.1503 29.1514 40.082 29.3234 40.082C29.4954 40.082 29.6604 40.1503 29.7821 40.272C29.9037 40.3936 29.9721 40.5586 29.9721 40.7306C29.9703 42.314 29.3406 43.832 28.221 44.9516C27.1013 46.0713 25.5833 46.701 23.9999 46.7027V46.7027Z" fill="#2DBEFC"/>
<path d="M20.9582 8.34353C20.7862 8.34353 20.6212 8.27519 20.4996 8.15355C20.3779 8.0319 20.3096 7.86691 20.3096 7.69488V4.98742C20.3096 4.00864 20.6984 3.06996 21.3905 2.37785C22.0826 1.68575 23.0213 1.29694 24.0001 1.29694C24.9788 1.29694 25.9175 1.68575 26.6096 2.37785C27.3017 3.06996 27.6905 4.00864 27.6905 4.98742V7.67931C27.6905 7.85135 27.6222 8.01633 27.5006 8.13798C27.3789 8.25962 27.2139 8.32796 27.0419 8.32796C26.8699 8.32796 26.7049 8.25962 26.5832 8.13798C26.4616 8.01633 26.3932 7.85135 26.3932 7.67931V4.98742C26.3932 4.35271 26.1411 3.74399 25.6923 3.29518C25.2435 2.84637 24.6348 2.59423 24.0001 2.59423C23.3653 2.59423 22.7566 2.84637 22.3078 3.29518C21.859 3.74399 21.6069 4.35271 21.6069 4.98742V7.69488C21.6069 7.86691 21.5385 8.0319 21.4169 8.15355C21.2952 8.27519 21.1303 8.34353 20.9582 8.34353Z" fill="#2DBEFC"/>
</svg>
