<svg width="34" height="34" viewBox="0 0 34 34" fill="none" xmlns="http://www.w3.org/2000/svg">
<g clip-path="url(#clip0)">
<path d="M32.5854 6.54819L26.301 0.263744C25.9491 -0.0879146 25.3788 -0.0879146 25.027 0.263744L9.40083 15.8898C9.27484 16.0159 9.18897 16.1766 9.15426 16.3514L7.59726 24.1928C7.53877 24.4878 7.63112 24.7926 7.84382 25.0053C8.01449 25.1759 8.24424 25.2691 8.48084 25.2691C8.53909 25.2691 8.59794 25.2634 8.65631 25.2518L16.4978 23.6948C16.6726 23.6601 16.8332 23.5742 16.9593 23.4482L32.5854 7.82211C32.9372 7.47034 32.9372 6.90009 32.5854 6.54819ZM9.99029 21.3918L10.8041 17.2931L15.556 22.0451L11.4573 22.8589L9.99029 21.3918Z" fill="black"/>
<path d="M24.7304 27.2711C16.1156 23.6645 10.5073 29.629 8.83239 30.5348C6.69133 31.6927 3.67509 33.0534 2.97394 30.6979C2.55094 29.2769 4.83804 27.7579 6.35252 27.2846C7.45746 26.9392 6.98558 25.1999 5.87356 25.5474C3.52172 26.2825 0.71542 28.2636 1.20748 31.0527C1.57307 33.1252 4.17039 35.0155 9.1784 32.3875C12.8184 30.4777 15.2912 26.5217 22.958 28.5703C25.4765 29.2431 27.5123 30.8847 28.384 33.3812C28.7645 34.4706 30.5053 34.0021 30.1213 32.9023C29.1922 30.2415 27.3125 28.3521 24.7304 27.2711Z" fill="black"/>
</g>
<defs>
<clipPath id="clip0">
<rect width="34" height="34" fill="white"/>
</clipPath>
</defs>
</svg>
