<svg width="39" height="39" viewBox="0 0 39 39" fill="none" xmlns="http://www.w3.org/2000/svg">
<g clip-path="url(#clip0)">
<path d="M38.7088 18.7379C38.3607 18.3496 29.9875 9.2168 19.5 9.2168C9.01248 9.2168 0.639364 18.3496 0.291182 18.7379C-0.0971421 19.1719 -0.0971421 19.8281 0.291182 20.2621C0.639364 20.6504 9.01263 29.7832 19.5 29.7832C29.9873 29.7832 38.3606 20.6504 38.7088 20.2621C39.097 19.8281 39.097 19.1719 38.7088 18.7379ZM19.5 27.498C15.0903 27.498 11.5019 23.9097 11.5019 19.5C11.5019 15.0903 15.0903 11.502 19.5 11.502C23.9096 11.502 27.498 15.0903 27.498 19.5C27.498 23.9097 23.9096 27.498 19.5 27.498Z" fill="black"/>
<path d="M20.6426 17.2148C20.6426 16.0654 21.2132 15.0542 22.0812 14.4323C21.3023 14.0335 20.4335 13.7871 19.5 13.7871C16.3501 13.7871 13.7871 16.3501 13.7871 19.5C13.7871 22.6499 16.3501 25.2129 19.5 25.2129C22.3202 25.2129 24.6544 23.1537 25.1155 20.463C22.8147 21.2037 20.6426 19.4636 20.6426 17.2148Z" fill="black"/>
</g>
<defs>
<clipPath id="clip0">
<rect width="39" height="39" fill="white"/>
</clipPath>
</defs>
</svg>
