<svg width="41" height="41" viewBox="0 0 41 41" fill="none" xmlns="http://www.w3.org/2000/svg">
<g clip-path="url(#clip0)">
<path d="M35.8475 5.01874L39.1803 5.02054C39.6402 5.02079 40.0138 4.64769 40.014 4.18775L40.0158 0.854839C40.0161 0.39498 39.643 0.0214695 39.183 0.0212202L35.8501 0.0194136C35.3902 0.0191643 35.0167 0.39227 35.0165 0.852208L35.0147 4.18512C35.0144 4.64498 35.3875 5.01849 35.8475 5.01874Z" fill="black"/>
<path d="M0.833312 39.9948L4.16622 39.9966C4.62608 39.9969 4.99959 39.6238 4.99984 39.1638L5.00165 35.8309C5.0019 35.3711 4.62879 34.9975 4.16885 34.9973L0.835943 34.9955C0.376083 34.9952 0.00257305 35.3683 0.00232373 35.8283L0.000517119 39.1611C0.000267803 39.6211 0.373374 39.9946 0.833312 39.9948Z" fill="black"/>
<path d="M4.16695 38.3301C23.0044 38.3403 38.3373 23.0241 38.3475 4.1866C38.3477 3.72667 37.9746 3.35315 37.5147 3.3529C37.0548 3.35265 36.6813 3.72576 36.681 4.1857C36.6713 22.1033 22.0854 36.6734 4.16777 36.6637C3.70784 36.6634 3.33432 37.0366 3.33407 37.4965C3.33382 37.9564 3.70701 38.3299 4.16695 38.3301Z" fill="black"/>
</g>
<defs>
<clipPath id="clip0">
<rect width="39.9946" height="39.9946" fill="white" transform="translate(39.9946 40.0161) rotate(-179.969)"/>
</clipPath>
</defs>
</svg>
