<svg width="39" height="39" viewBox="0 0 39 39" fill="none" xmlns="http://www.w3.org/2000/svg">
<path d="M19.5001 10.2468L5.59093 21.7135C5.59093 21.7297 5.58686 21.7535 5.57873 21.7859C5.57077 21.8181 5.56653 21.8415 5.56653 21.8581V33.4693C5.56653 33.8885 5.7198 34.2519 6.02626 34.5578C6.33264 34.8639 6.69544 35.018 7.11476 35.018H16.4035V25.7287H22.5968V35.0183H31.8854C32.3046 35.0183 32.668 34.8646 32.9739 34.5578C33.2804 34.2522 33.4341 33.8886 33.4341 33.4693V21.8581C33.4341 21.7937 33.4253 21.7451 33.4097 21.7135L19.5001 10.2468Z" fill="black"/>
<path d="M38.731 19.1009L33.4336 14.6982V4.82854C33.4336 4.60291 33.3611 4.41736 33.2155 4.27214C33.0711 4.12708 32.8856 4.05456 32.6595 4.05456H28.015C27.7891 4.05456 27.6037 4.12708 27.4584 4.27214C27.3134 4.41736 27.2409 4.603 27.2409 4.82854V9.5456L21.3386 4.61062C20.8232 4.19131 20.2102 3.98169 19.5006 3.98169C18.791 3.98169 18.1781 4.19131 17.6621 4.61062L0.268804 19.1009C0.107567 19.2297 0.0191957 19.403 0.00275852 19.6208C-0.0135939 19.8383 0.04275 20.0284 0.17196 20.1895L1.67173 21.9797C1.80094 22.1247 1.97005 22.2134 2.17975 22.2459C2.37336 22.2622 2.56696 22.2056 2.76056 22.0766L19.5 8.11836L36.2397 22.0765C36.369 22.189 36.538 22.2452 36.7477 22.2452H36.8204C37.0298 22.2134 37.1986 22.1241 37.3285 21.9793L38.8284 20.1895C38.9573 20.028 39.0139 19.8383 38.9971 19.6204C38.9806 19.4033 38.8919 19.2299 38.731 19.1009Z" fill="black"/>
</svg>
