<svg width="19" height="19" viewBox="0 0 19 19" fill="none" xmlns="http://www.w3.org/2000/svg">
<path d="M18.3038 11.9985L16.2993 10.4263C16.3373 10.1222 16.3658 9.8135 16.3658 9.5C16.3658 9.1865 16.3373 8.87776 16.2993 8.57375L18.3086 7.00148C18.489 6.85898 18.5413 6.60248 18.4226 6.3935L16.5225 3.10174C16.4038 2.89747 16.1568 2.81197 15.9431 2.89748L13.5776 3.85223C13.0883 3.47696 12.5516 3.15874 11.9721 2.91649L11.6158 0.399001C11.573 0.175765 11.3783 0 11.1408 0H7.34081C7.10333 0 6.90855 0.175765 6.87056 0.399001L6.51431 2.91649C5.93482 3.15874 5.39804 3.47224 4.90882 3.85223L2.54332 2.89748C2.32957 2.81674 2.08255 2.89747 1.96383 3.10174L0.0637693 6.3935C-0.0549958 6.59776 -0.00271599 6.85426 0.177769 7.00148L2.18226 8.57375C2.14427 8.87776 2.11577 9.1865 2.11577 9.5C2.11577 9.8135 2.14427 10.1222 2.18226 10.4263L0.177769 11.9985C-0.00271599 12.141 -0.0549958 12.3975 0.0637693 12.6065L1.96379 15.8983C2.08255 16.1025 2.32952 16.188 2.54327 16.1025L4.90878 15.1478C5.39804 15.523 5.93478 15.8413 6.51426 16.0835L6.87052 18.601C6.9085 18.8242 7.10328 19 7.34077 19H11.1408C11.3782 19 11.573 18.8242 11.611 18.601L11.9673 16.0835C12.5467 15.8413 13.0835 15.5278 13.5727 15.1478L15.9382 16.1025C16.152 16.1833 16.399 16.1025 16.5177 15.8983L18.4178 12.6065C18.5366 12.4023 18.4843 12.1458 18.3038 11.9985ZM9.24078 12.825C7.40253 12.825 5.91576 11.3383 5.91576 9.5C5.91576 7.66175 7.40253 6.17502 9.24078 6.17502C11.079 6.17502 12.5658 7.66179 12.5658 9.50004C12.5658 11.3383 11.079 12.825 9.24078 12.825Z" fill="black"/>
</svg>
