<svg width="22" height="22" viewBox="0 0 22 22" fill="none" xmlns="http://www.w3.org/2000/svg">
<path d="M17.1875 8.25H16.5V5.5C16.5 2.46667 14.0333 0 11 0C7.96667 0 5.5 2.46667 5.5 5.5V8.25H4.8125C3.67584 8.25 2.75 9.17484 2.75 10.3125V19.9375C2.75 21.0752 3.67584 22 4.8125 22H17.1875C18.3242 22 19.25 21.0752 19.25 19.9375V10.3125C19.25 9.17484 18.3242 8.25 17.1875 8.25ZM7.33339 5.5C7.33339 3.47778 8.97778 1.83339 11 1.83339C13.0222 1.83339 14.6666 3.47778 14.6666 5.5V8.25H7.33339V5.5Z" fill="black"/>
</svg>
