<svg width="21" height="22" viewBox="0 0 21 22" fill="none" xmlns="http://www.w3.org/2000/svg">
<g clip-path="url(#clip0)">
<path d="M20.8432 10.8238C20.6557 10.6172 16.1471 5.75879 10.5 5.75879C4.85287 5.75879 0.344268 10.6172 0.156785 10.8238C-0.0523126 11.0547 -0.0523126 11.4037 0.156785 11.6346C0.344268 11.8412 4.85295 16.6996 10.5 16.6996C16.147 16.6996 20.6557 11.8412 20.8432 11.6346C21.0522 11.4037 21.0522 11.0547 20.8432 10.8238ZM10.5 15.4839C8.12555 15.4839 6.19334 13.575 6.19334 11.2292C6.19334 8.88336 8.12555 6.97443 10.5 6.97443C12.8744 6.97443 14.8066 8.88336 14.8066 11.2292C14.8066 13.575 12.8744 15.4839 10.5 15.4839Z" fill="black"/>
<path d="M11.1152 10.0134C11.1152 9.40194 11.4225 8.86402 11.8899 8.53316C11.4705 8.32103 11.0026 8.18994 10.5 8.18994C8.80388 8.18994 7.42383 9.55337 7.42383 11.2291C7.42383 12.9047 8.80388 14.2682 10.5 14.2682C12.0186 14.2682 13.2754 13.1727 13.5238 11.7413C12.2848 12.1354 11.1152 11.2097 11.1152 10.0134Z" fill="black"/>
</g>
<defs>
<clipPath id="clip0">
<rect width="21" height="20.747" fill="white" transform="translate(0 0.855469)"/>
</clipPath>
</defs>
</svg>
