<svg width="27" height="27" viewBox="0 0 27 27" fill="none" xmlns="http://www.w3.org/2000/svg">
<g clip-path="url(#clip0)">
<path d="M25.9824 0H18.6219C18.0599 0 17.6044 0.45552 17.6044 1.01762C17.6044 1.57966 18.0599 2.03518 18.6219 2.03518H24.9649V8.37812C24.9649 8.94016 25.4204 9.39568 25.9824 9.39568C26.5445 9.39568 27 8.94016 27 8.37812V1.01762C27 0.45552 26.5445 0 25.9824 0Z" fill="black"/>
<path d="M26.7018 0.298173C26.3043 -0.0993911 25.6604 -0.0993911 25.2629 0.298173L10.7453 14.8157C10.3478 15.2129 10.3478 15.8574 10.7453 16.2546C10.9438 16.4533 11.2043 16.5528 11.4648 16.5528C11.7249 16.5528 11.9854 16.4533 12.1842 16.2546L26.7018 1.73703C27.0994 1.33984 27.0994 0.695369 26.7018 0.298173Z" fill="black"/>
<path d="M22.5226 12.6522C21.9606 12.6522 21.505 13.1077 21.505 13.6698V24.965H2.03518V5.49514H13.3304C13.8924 5.49514 14.348 5.03962 14.348 4.47758C14.348 3.91553 13.8924 3.45996 13.3304 3.45996H1.01762C0.45552 3.45996 0 3.91548 0 4.47758V25.9826C0 26.5446 0.45552 27.0002 1.01762 27.0002H22.5226C23.085 27.0002 23.5402 26.5446 23.5402 25.9825V13.6698C23.5402 13.1077 23.0847 12.6522 22.5226 12.6522Z" fill="black"/>
</g>
<defs>
<clipPath id="clip0">
<rect width="27" height="27" fill="white"/>
</clipPath>
</defs>
</svg>
