<svg width="31" height="27" viewBox="0 0 31 27" fill="none" xmlns="http://www.w3.org/2000/svg">
<g clip-path="url(#clip0)">
<path d="M26.35 8.08008H19.375V9.42674H25.575V25.5867H5.425V9.42674H11.625V8.08008H4.65C4.22218 8.08008 3.875 8.38171 3.875 8.75341V26.2601C3.875 26.6318 4.22218 26.9334 4.65 26.9334H26.35C26.7778 26.9334 27.125 26.6318 27.125 26.2601V8.75341C27.125 8.38171 26.7778 8.08008 26.35 8.08008Z" fill="black"/>
<path d="M20.7044 12.3225C20.4053 12.0567 19.9139 12.0518 19.6086 12.3117L16.275 15.1446V0.673333C16.275 0.301632 15.9279 0 15.5001 0C15.0722 0 14.7251 0.301632 14.7256 0.673333V15.1442L11.3921 12.3112C11.0867 12.0513 10.5954 12.0562 10.2962 12.322C9.99707 12.5882 10.0023 13.0142 10.3086 13.2741L14.9586 17.2261C15.264 17.4865 15.7553 17.4815 16.0545 17.2162L20.6921 13.2746C20.9979 13.0146 21.0036 12.5886 20.7044 12.3225Z" fill="black"/>
</g>
<defs>
<clipPath id="clip0">
<rect width="31" height="26.9333" fill="white"/>
</clipPath>
</defs>
</svg>
