<svg width="26" height="26" viewBox="0 0 26 26" fill="none" xmlns="http://www.w3.org/2000/svg">
<path d="M24.9166 11.5692H17.5833C17.0773 11.5692 16.6666 11.1656 16.6666 10.6683C16.6666 10.171 17.0773 9.76744 17.5833 9.76744H23.9999V3.46141C23.9999 2.96413 24.4106 2.56055 24.9166 2.56055C25.4226 2.56055 25.8333 2.96413 25.8333 3.46141V10.6683C25.8333 11.1656 25.4226 11.5692 24.9166 11.5692Z" fill="black"/>
<path d="M1.08326 24.1815C0.577262 24.1815 0.166595 23.7779 0.166595 23.2806V16.0737C0.166595 15.5764 0.577262 15.1729 1.08326 15.1729H8.4166C8.9226 15.1729 9.33327 15.5764 9.33327 16.0737C9.33327 16.571 8.9226 16.9746 8.4166 16.9746H1.99993V23.2806C1.99993 23.7779 1.58926 24.1815 1.08326 24.1815Z" fill="black"/>
<path d="M24.5866 11.5691C24.1686 11.5691 23.7927 11.2881 23.6937 10.8737C22.5314 5.97838 18.1351 2.56051 12.9999 2.56051C7.86473 2.56051 3.4684 5.97838 2.30607 10.8737C2.19057 11.3565 1.70473 11.6574 1.20423 11.5457C0.711067 11.4322 0.4049 10.9475 0.518567 10.4629C1.87707 4.74961 7.00857 0.758789 12.9999 0.758789C18.9912 0.758789 24.1227 4.74961 25.4812 10.4629C25.5949 10.9475 25.2906 11.4322 24.7956 11.5457C24.7259 11.5619 24.6544 11.5691 24.5866 11.5691Z" fill="black"/>
<path d="M12.9999 25.9831C7.00857 25.9831 1.87707 21.9923 0.518567 16.2791C0.4049 15.7944 0.711067 15.3097 1.20423 15.1962C1.70473 15.0827 2.19057 15.3854 2.30607 15.8683C3.4684 20.7635 7.86473 24.1814 12.9999 24.1814C18.1351 24.1814 22.5314 20.7635 23.6937 15.8683C23.8111 15.3854 24.2969 15.0827 24.7956 15.1962C25.2906 15.3079 25.5967 15.7944 25.4812 16.2791C24.1227 21.9923 18.9912 25.9831 12.9999 25.9831Z" fill="black"/>
</svg>
