<svg width="27" height="27" viewBox="0 0 27 27" fill="none" xmlns="http://www.w3.org/2000/svg">
<path d="M18.2461 22.2539H8.75391C8.31705 22.2539 7.96289 22.6081 7.96289 23.0449C7.96289 23.4818 8.31705 23.8359 8.75391 23.8359H18.2461C18.6829 23.8359 19.0371 23.4818 19.0371 23.0449C19.0371 22.6081 18.6829 22.2539 18.2461 22.2539Z" fill="black"/>
<path d="M18.2461 15.9258H8.75391C8.31705 15.9258 7.96289 16.2799 7.96289 16.7168C7.96289 17.1536 8.31705 17.5078 8.75391 17.5078H18.2461C18.6829 17.5078 19.0371 17.1536 19.0371 16.7168C19.0371 16.2799 18.6829 15.9258 18.2461 15.9258Z" fill="black"/>
<path d="M18.2461 19.0898H8.75391C8.31705 19.0898 7.96289 19.444 7.96289 19.8809C7.96289 20.3177 8.31705 20.6719 8.75391 20.6719H18.2461C18.6829 20.6719 19.0371 20.3177 19.0371 19.8809C19.0371 19.444 18.6829 19.0898 18.2461 19.0898Z" fill="black"/>
<path d="M17.4551 0H6.38086V6.85547H17.4551V0Z" fill="black"/>
<path d="M26.7683 4.45046L22.5495 0.231715C22.4012 0.0833731 22.2 0 21.9902 0H19.0371V7.64648C19.0371 8.08334 18.6829 8.4375 18.2461 8.4375H5.58984C5.15299 8.4375 4.79883 8.08334 4.79883 7.64648V0H0.791016C0.354164 0 0 0.354164 0 0.791016V26.209C0 26.6458 0.354164 27 0.791016 27C1.03597 27 25.88 27 26.209 27C26.6458 27 27 26.6458 27 26.209V5.00977C27 4.79999 26.9166 4.59881 26.7683 4.45046ZM20.6191 25.418H6.38086V14.3438H20.6191V25.418Z" fill="black"/>
</svg>
